<?xml version="1.0" standalone="no"?>
<!DOCTYPE svg PUBLIC "-//W3C//DTD SVG 20010904//EN"
 "http://www.w3.org/TR/2001/REC-SVG-20010904/DTD/svg10.dtd">
<svg version="1.0" xmlns="http://www.w3.org/2000/svg"
 width="1024.000000pt" height="768.000000pt" viewBox="0 0 1024.000000 768.000000"
 preserveAspectRatio="xMidYMid meet">

<g transform="translate(0.000000,768.000000) scale(0.100000,-0.100000)"
fill="#000000" stroke="none">
<path d="M3360 4160 l0 -1000 514 0 c546 0 610 -4 712 -50 26 -11 48 -20 50
-20 2 0 4 54 4 119 l0 119 -32 11 c-101 32 -135 34 -573 40 l-450 6 0 775 0
775 415 0 c365 0 424 -2 490 -18 229 -55 421 -235 489 -459 24 -81 38 -188 23
-188 -5 0 -12 6 -15 13 -8 22 -148 130 -220 170 -155 87 -319 117 -639 117
l-168 0 0 -115 0 -115 233 0 c200 0 245 -3 311 -20 118 -30 209 -82 302 -175
120 -119 182 -246 199 -410 l8 -70 -64 61 c-82 77 -140 117 -242 164 -145 67
-180 73 -482 77 l-270 5 3 -110 3 -110 252 -4 c242 -4 255 -5 334 -31 167 -56
309 -180 389 -342 72 -145 74 -168 74 -771 l0 -524 109 0 110 0 3 563 c4 628
1 596 80 748 77 150 220 272 382 326 78 26 91 27 333 31 l252 4 3 110 3 110
-270 -5 c-302 -4 -337 -10 -482 -77 -102 -47 -160 -87 -242 -164 l-64 -61 8
70 c29 279 232 516 501 585 66 17 111 20 311 20 l233 0 0 116 0 117 -247 -6
c-222 -5 -258 -8 -347 -31 -155 -40 -296 -118 -405 -225 -23 -22 -44 -41 -48
-41 -11 0 9 125 33 199 65 205 224 363 437 435 87 29 224 37 592 34 l360 -3 0
-775 0 -775 -450 -6 c-438 -6 -472 -8 -572 -40 l-33 -11 0 -119 c0 -65 2 -119
4 -119 2 0 24 9 50 20 102 46 166 50 712 50 l514 0 0 1001 0 1000 -552 -4
c-532 -3 -556 -4 -638 -26 -220 -57 -444 -218 -543 -391 -12 -22 -24 -40 -27
-39 -3 0 -22 26 -42 57 -84 131 -203 235 -351 307 -182 88 -240 95 -859 95
l-508 0 0 -1000z"/>
</g>
</svg>
